HIERARCHY
ROOT Hips
{
  OFFSET 76.347 92.6806 -49.6304
  CHANNELS 6 Xposition Yposition Zposition Zrotation Xrotation Yrotation
  JOINT RightUpLeg
  {
    OFFSET -9.2536 -1.56971 -0.009835
    CHANNELS 3 Zrotation Xrotation Yrotation
    JOINT RightLeg
    {
      OFFSET 0.003613 -41.8721 0.033096
      CHANNELS 3 Zrotation Xrotation Yrotation
      JOINT RightFoot
      {
        OFFSET 0.190023 -41.7536 -0.162077
        CHANNELS 3 Zrotation Xrotation Yrotation
        End Site
        {
          OFFSET 0 -7.69 17.5
        }
      }
    }
  }
  JOINT LeftUpLeg
  {
    OFFSET 9.25993 -1.60807 -0.003591
    CHANNELS 3 Zrotation Xrotation Yrotation
    JOINT LeftLeg
    {
      OFFSET 0.056181 -41.8768 -0.046918
      CHANNELS 3 Zrotation Xrotation Yrotation
      JOINT LeftFoot
      {
        OFFSET 0.206009 -42.0177 -0.454554
        CHANNELS 3 Zrotation Xrotation Yrotation
        End Site
        {
          OFFSET 0 -7.69 17.5
        }
      }
    }
  }
  JOINT Spine
  {
    OFFSET 0.055174 14.3087 0.014143
    CHANNELS 3 Zrotation Xrotation Yrotation
    JOINT Spine1
    {
      OFFSET 0.013927 9.70629 0.00545
      CHANNELS 3 Zrotation Xrotation Yrotation
      JOINT Spine2
      {
        OFFSET 0.014023 10.1242 0.014512
        CHANNELS 3 Zrotation Xrotation Yrotation
        JOINT Spine3
        {
          OFFSET 0.012086 9.7191 0.009001
          CHANNELS 3 Zrotation Xrotation Yrotation
          JOINT Neck
          {
            OFFSET 0.131707 10.3859 0.054297
            CHANNELS 3 Zrotation Xrotation Yrotation
            JOINT Head
            {
              OFFSET -0.005552 9.48088 0.122183
              CHANNELS 3 Zrotation Xrotation Yrotation
              End Site
              {
                OFFSET 0 15.95 0
              }
            }
          }
          JOINT RightShoulder
          {
            OFFSET -3.20137 6.92944 0.018295
            CHANNELS 3 Zrotation Xrotation Yrotation
            JOINT RightArm
            {
              OFFSET -12.7595 0.009634 0.00435
              CHANNELS 3 Zrotation Xrotation Yrotation
              JOINT RightForeArm
              {
                OFFSET -26.5076 -0.004773 -0.015002
                CHANNELS 3 Zrotation Xrotation Yrotation
                JOINT RightHand
                {
                  OFFSET -26.002 -5.9e-05 -0.011656
                  CHANNELS 3 Zrotation Xrotation Yrotation
                  JOINT RightHandThumb1
                  {
                    OFFSET -2.48905 0.190105 3.12053
                    CHANNELS 3 Zrotation Xrotation Yrotation
                    JOINT RightHandThumb2
                    {
                      OFFSET -3.68274 0 0
                      CHANNELS 3 Zrotation Xrotation Yrotation
                      JOINT RightHandThumb3
                      {
                        OFFSET -2.55832 0 0
                        CHANNELS 3 Zrotation Xrotation Yrotation
                        End Site
                        {
                          OFFSET -2.194 0 0
                        }
                      }
                    }
                  }
                  JOINT RightInHandIndex
                  {
                    OFFSET -3.22368 0.508421 1.97842
                    CHANNELS 3 Zrotation Xrotation Yrotation
                    JOINT RightHandIndex1
                    {
                      OFFSET -5.21684 -0.091368 0.999158
                      CHANNELS 3 Zrotation Xrotation Yrotation
                      JOINT RightHandIndex2
                      {
                        OFFSET -3.61937 0 0
                        CHANNELS 3 Zrotation Xrotation Yrotation
                        JOINT RightHandIndex3
                        {
                          OFFSET -2.0521 0 0
                          CHANNELS 3 Zrotation Xrotation Yrotation
                          End Site
                          {
                            OFFSET -1.805 0 0
                          }
                        }
                      }
                    }
                  }
                  JOINT RightInHandMiddle
                  {
                    OFFSET -3.38211 0.517263 0.756737
                    CHANNELS 3 Zrotation Xrotation Yrotation
                    JOINT RightHandMiddle1
                    {
                      OFFSET -5.17411 -0.084 0.313895
                      CHANNELS 3 Zrotation Xrotation Yrotation
                      JOINT RightHandMiddle2
                      {
                        OFFSET -3.94947 0 0
                        CHANNELS 3 Zrotation Xrotation Yrotation
                        JOINT RightHandMiddle3
                        {
                          OFFSET -2.47579 0 0
                          CHANNELS 3 Zrotation Xrotation Yrotation
                          End Site
                          {
                            OFFSET -1.975 0 0
                          }
                        }
                      }
                    }
                  }
                  JOINT RightInHandRing
                  {
                    OFFSET -3.36516 0.537895 -0.128947
                    CHANNELS 3 Zrotation Xrotation Yrotation
                    JOINT RightHandRing1
                    {
                      OFFSET -4.63474 -0.022105 -0.478947
                      CHANNELS 3 Zrotation Xrotation Yrotation
                      JOINT RightHandRing2
                      {
                        OFFSET -3.44238 0 0
                        CHANNELS 3 Zrotation Xrotation Yrotation
                        JOINT RightHandRing3
                        {
                          OFFSET -2.3881 0 0
                          CHANNELS 3 Zrotation Xrotation Yrotation
                          End Site
                          {
                            OFFSET -1.857 0 0
                          }
                        }
                      }
                    }
                  }
                  JOINT RightInHandPinky
                  {
                    OFFSET -3.16105 0.469368 -1.20179
                    CHANNELS 3 Zrotation Xrotation Yrotation
                    JOINT RightHandPinky1
                    {
                      OFFSET -4.14105 -0.022105 -1.09053
                      CHANNELS 3 Zrotation Xrotation Yrotation
                      JOINT RightHandPinky2
                      {
                        OFFSET -2.75653 0 0
                        CHANNELS 3 Zrotation Xrotation Yrotation
                        JOINT RightHandPinky3
                        {
                          OFFSET -1.74189 0 0
                          CHANNELS 3 Zrotation Xrotation Yrotation
                          End Site
                          {
                            OFFSET -1.645 0 0
                          }
                        }
                      }
                    }
                  }
                }
              }
            }
          }
          JOINT LeftShoulder
          {
            OFFSET 3.20143 6.91127 -0.000395
            CHANNELS 3 Zrotation Xrotation Yrotation
            JOINT LeftArm
            {
              OFFSET 12.7779 -0.028682 -0.037301
              CHANNELS 3 Zrotation Xrotation Yrotation
              JOINT LeftForeArm
              {
                OFFSET 26.4982 -0.116492 -0.017681
                CHANNELS 3 Zrotation Xrotation Yrotation
                JOINT LeftHand
                {
                  OFFSET 26.0046 -0.058588 -0.01331
                  CHANNELS 3 Zrotation Xrotation Yrotation
                  JOINT LeftHandThumb1
                  {
                    OFFSET 2.48905 0.190105 3.12053
                    CHANNELS 3 Zrotation Xrotation Yrotation
                    JOINT LeftHandThumb2
                    {
                      OFFSET 3.68274 0 0
                      CHANNELS 3 Zrotation Xrotation Yrotation
                      JOINT LeftHandThumb3
                      {
                        OFFSET 2.55832 0 0
                        CHANNELS 3 Zrotation Xrotation Yrotation
                        End Site
                        {
                          OFFSET 2.194 0 0
                        }
                      }
                    }
                  }
                  JOINT LeftInHandIndex
                  {
                    OFFSET 3.22368 0.508421 1.97842
                    CHANNELS 3 Zrotation Xrotation Yrotation
                    JOINT LeftHandIndex1
                    {
                      OFFSET 5.21684 -0.091368 0.999158
                      CHANNELS 3 Zrotation Xrotation Yrotation
                      JOINT LeftHandIndex2
                      {
                        OFFSET 3.61937 0 0
                        CHANNELS 3 Zrotation Xrotation Yrotation
                        JOINT LeftHandIndex3
                        {
                          OFFSET 2.0521 0 0
                          CHANNELS 3 Zrotation Xrotation Yrotation
                          End Site
                          {
                            OFFSET 1.805 0 0
                          }
                        }
                      }
                    }
                  }
                  JOINT LeftInHandMiddle
                  {
                    OFFSET 3.38211 0.517263 0.756737
                    CHANNELS 3 Zrotation Xrotation Yrotation
                    JOINT LeftHandMiddle1
                    {
                      OFFSET 5.17411 -0.084 0.313895
                      CHANNELS 3 Zrotation Xrotation Yrotation
                      JOINT LeftHandMiddle2
                      {
                        OFFSET 3.94947 0 0
                        CHANNELS 3 Zrotation Xrotation Yrotation
                        JOINT LeftHandMiddle3
                        {
                          OFFSET 2.47579 0 0
                          CHANNELS 3 Zrotation Xrotation Yrotation
                          End Site
                          {
                            OFFSET 1.975 0 0
                          }
                        }
                      }
                    }
                  }
                  JOINT LeftInHandRing
                  {
                    OFFSET 3.36516 0.537895 -0.128947
                    CHANNELS 3 Zrotation Xrotation Yrotation
                    JOINT LeftHandRing1
                    {
                      OFFSET 4.63474 -0.022105 -0.478947
                      CHANNELS 3 Zrotation Xrotation Yrotation
                      JOINT LeftHandRing2
                      {
                        OFFSET 3.44238 0 0
                        CHANNELS 3 Zrotation Xrotation Yrotation
                        JOINT LeftHandRing3
                        {
                          OFFSET 2.3881 0 0
                          CHANNELS 3 Zrotation Xrotation Yrotation
                          End Site
                          {
                            OFFSET 1.857 0 0
                          }
                        }
                      }
                    }
                  }
                  JOINT LeftInHandPinky
                  {
                    OFFSET 3.16105 0.469368 -1.20179
                    CHANNELS 3 Zrotation Xrotation Yrotation
                    JOINT LeftHandPinky1
                    {
                      OFFSET 4.14105 -0.022105 -1.09053
                      CHANNELS 3 Zrotation Xrotation Yrotation
                      JOINT LeftHandPinky2
                      {
                        OFFSET 2.75653 0 0
                        CHANNELS 3 Zrotation Xrotation Yrotation
                        JOINT LeftHandPinky3
                        {
                          OFFSET 1.74189 0 0
                          CHANNELS 3 Zrotation Xrotation Yrotation
                          End Site
                          {
                            OFFSET 1.645 0 0
                          }
                        }
                      }
                    }
                  }
                }
              }
            }
          }
        }
      }
    }
  }
}
MOTION
Frames: 3
Frame Time: 0.00833333
4.500265522152100743e+02 -2.514764982096144574e-02 4.232058952350560288e-01 1.315362935379260079e-01 -5.233400027810275468e-01 2.046874286649106089e+00 -3.145693954964475569e+00 -7.348378225605221026e-01 -2.605768861652573598e+00 8.231083453248298765e-02 4.555406648092918398e-01 -4.519813847338829960e-01 3.470815581416654139e-01 -3.901714537137511707e-01 -2.067588485404346088e-01 -1.664892026789900559e+00 -9.236984664833491898e-01 -9.107139891015229027e-01 -2.817250153981034066e-01 -5.643061024386338831e-01 6.517466631568136215e-02 1.992579080930098612e-01 2.733744424681760869e-04 -1.157372341325193732e+00 -2.909614100346151200e-01 2.297212751628031402e+00 3.743190392827405177e-01 1.095691715367708985e-01 -2.058698466769130597e+00 -3.488568977708788044e-01 1.157769243019446948e-01 5.355106018091902731e-02 -2.768754831661915383e-02 -4.123062459020341089e-03 8.361707275630141101e-02 -2.706289965539520129e-02 1.992281883262107811e-01 1.120920573634256456e+00 -5.814478094463423341e-01 1.665705377462263770e-01 2.155067922891870102e-01 -7.835987640281663058e-01 1.273716362297326044e-01 -2.916503125258474993e-01 8.762802932702171699e-01 -2.650504907496070484e+00 7.955695185205136077e-01 7.159765076833470854e-01 7.161808510854380749e+00 1.458304802608380468e+00 5.466475069523366592e+00 7.766240605192713531e-01 5.059401738461389852e-01 -6.957019574594012212e-01 0.000000000000000000e+00 0.000000000000000000e+00 0.000000000000000000e+00 -7.014282842035464997e-15 8.644966796349045748e-16 0.000000000000000000e+00 -2.628287273960344490e-15 -5.720132734413382938e-15 0.000000000000000000e+00 -9.320496778836399082e-16 9.951224100774744696e-16 1.216279838029099012e-15 0.000000000000000000e+00 0.000000000000000000e+00 0.000000000000000000e+00 0.000000000000000000e+00 -5.983183587261859925e-16 1.754845499416264160e-15 0.000000000000000000e+00 -2.475467980197731871e-15 -6.355202646375206152e-15 -9.320496778836399082e-16 9.951224100774744696e-16 1.216279838029099012e-15 0.000000000000000000e+00 4.612623041964503313e-15 6.961082047801966418e-15 0.000000000000000000e+00 -3.421074961439725670e-16 1.828017085602213461e-15 0.000000000000000000e+00 -6.371902165312810432e-16 6.394212795508301452e-15 -9.320496778836399082e-16 9.951224100774744696e-16 1.216279838029099012e-15 0.000000000000000000e+00 0.000000000000000000e+00 0.000000000000000000e+00 0.000000000000000000e+00 2.336435575121687086e-15 8.424668663608349898e-15 0.000000000000000000e+00 1.304761111681478439e-15 9.537947252662680085e-15 -9.320496778836399082e-16 9.951224100774744696e-16 1.216279838029099012e-15 0.000000000000000000e+00 0.000000000000000000e+00 0.000000000000000000e+00 0.000000000000000000e+00 5.663906647340378118e-16 5.878632285441722878e-15 0.000000000000000000e+00 2.223822040677462939e-16 3.271560313069620878e-15 6.144412286060494006e-03 1.867582713170257702e-01 1.279588952283141901e-01 1.545760569012539498e-01 -2.706606777763255200e-01 -7.997697843850126720e-02 7.868585324153840599e-01 -2.385559993038695037e+00 4.145223081636406071e-01 -6.347415475049277944e+00 -2.673370927163465360e+00 -1.457436074373318569e+00 0.000000000000000000e+00 0.000000000000000000e+00 0.000000000000000000e+00 2.836932684857322318e-15 9.203914834489810146e-16 0.000000000000000000e+00 -2.817945803415778698e-15 2.605486117430972275e-15 0.000000000000000000e+00 -7.249442736067967209e-16 -5.009869995769658745e-16 1.178043129662292529e-15 0.000000000000000000e+00 0.000000000000000000e+00 0.000000000000000000e+00 0.000000000000000000e+00 -2.245573710327579663e-15 -6.442479447927361665e-15 0.000000000000000000e+00 -2.315617022750826302e-15 -7.956412428052294342e-16 -7.249442736067967209e-16 -5.009869995769658745e-16 1.178043129662292529e-15 0.000000000000000000e+00 -2.608801191140785849e-15 4.309665397598961138e-15 0.000000000000000000e+00 -3.111796634642432242e-15 -3.793700885951404052e-15 0.000000000000000000e+00 3.329044655518253911e-17 7.428170427780941262e-18 -7.249442736067967209e-16 -5.009869995769658745e-16 1.178043129662292529e-15 0.000000000000000000e+00 0.000000000000000000e+00 0.000000000000000000e+00 0.000000000000000000e+00 1.332062085031639055e-15 -2.474683079001148709e-15 0.000000000000000000e+00 1.698724286974437927e-15 -1.340654658608330395e-15 -7.249442736067967209e-16 -5.009869995769658745e-16 1.178043129662292529e-15 0.000000000000000000e+00 0.000000000000000000e+00 0.000000000000000000e+00 0.000000000000000000e+00 2.776001136645687244e-15 -3.785448339476268454e-15 0.000000000000000000e+00 -1.660488227818771013e-15 -1.726962264148836190e-15
4.500052215302331433e+02 -2.029242462037883152e-02 3.813862752865300743e-01 1.292739932416793469e-01 -4.604761550316598950e-01 1.922000707038713285e+00 -3.015145577464901194e+00 -6.384007814220613586e-01 -2.472207944320683026e+00 1.142490331289278821e-01 4.133843153908767776e-01 -4.505859877038734251e-01 3.344264953343970559e-01 -3.705768561751093815e-01 -2.140739298484702902e-01 -1.557126967660156236e+00 -8.066134484456011222e-01 -8.955486575954614281e-01 -2.578057548336690208e-01 -5.429277637128929745e-01 6.642367045108943380e-02 2.344577471600427510e-01 6.199418818948773668e-02 -1.049482504711145792e+00 -3.419925270429566289e-01 2.418709075025002431e+00 3.896863083389265348e-01 1.119894323144974557e-01 -2.265374726338195366e+00 -3.893754723839799592e-01 1.094932696843562842e-01 8.803520846622114870e-02 -3.716038281014919648e-02 -1.468010885764446660e-03 7.206137628282845153e-02 -2.197228180243772713e-02 2.250235773121025129e-01 1.011451077065026682e+00 -4.567310221307411822e-01 1.685586525932748214e-01 2.170525773766160682e-01 -6.796688154646590707e-01 1.532776451316641697e-01 -2.378872870746688573e-01 8.902802827943873121e-01 -2.532160784183720814e+00 9.157365963244226137e-01 6.415184552526229655e-01 5.631713126990838703e+00 1.648720279010013945e+00 4.278398129788356208e+00 6.056181026579398052e-01 5.532605773745631339e-01 -7.664955586367474538e-01 0.000000000000000000e+00 0.000000000000000000e+00 0.000000000000000000e+00 -8.105349825799594037e-15 5.461370481286089151e-16 0.000000000000000000e+00 -4.376946869141023588e-15 -6.144365954489524192e-15 0.000000000000000000e+00 -1.075207321305293293e-15 8.740930072641418512e-16 1.329981214732748664e-15 0.000000000000000000e+00 0.000000000000000000e+00 0.000000000000000000e+00 0.000000000000000000e+00 -9.469635487643196603e-16 1.128497737803204713e-15 0.000000000000000000e+00 -2.636663533349840137e-15 -6.203450754866594271e-15 -1.075207321305293293e-15 8.740930072641418512e-16 1.329981214732748664e-15 0.000000000000000000e+00 4.556946618509698809e-15 7.352831917235311980e-15 0.000000000000000000e+00 -7.517303903997200789e-16 9.461113014517202800e-16 0.000000000000000000e+00 -5.270119704618611969e-16 7.673788582334239281e-15 -1.075207321305293293e-15 8.740930072641418512e-16 1.329981214732748664e-15 0.000000000000000000e+00 0.000000000000000000e+00 0.000000000000000000e+00 0.000000000000000000e+00 2.479753520271228790e-15 9.266373475885857765e-15 0.000000000000000000e+00 2.084810022607184942e-15 1.111208457079637211e-14 -1.075207321305293293e-15 8.740930072641418512e-16 1.329981214732748664e-15 0.000000000000000000e+00 0.000000000000000000e+00 0.000000000000000000e+00 0.000000000000000000e+00 4.240388114871592483e-16 6.374632392157988538e-15 0.000000000000000000e+00 4.681611223799704684e-16 4.597807264619300618e-15 2.205213496313428514e-02 1.627029083188357983e-01 2.020831987392974483e-01 2.657226018946760027e-01 -2.352610781445224342e-01 -2.461328156503009845e-01 6.462020983879183111e-01 -2.194934619619103522e+00 4.079136844804364115e-01 -5.630386374203683708e+00 -2.678247428786780127e+00 -1.042336519266511052e+00 0.000000000000000000e+00 0.000000000000000000e+00 0.000000000000000000e+00 3.389976742503933763e-15 1.039174062378674120e-15 0.000000000000000000e+00 -3.316595001317088879e-15 2.934927982863777403e-15 0.000000000000000000e+00 -1.119854366332493992e-15 -1.178803456146589323e-15 1.637711384166392625e-15 0.000000000000000000e+00 0.000000000000000000e+00 0.000000000000000000e+00 0.000000000000000000e+00 -2.510949523163552712e-15 -7.090760328250427219e-15 0.000000000000000000e+00 -1.925904729050067042e-15 -2.267908675010671758e-15 -1.119854366332493992e-15 -1.178803456146589323e-15 1.637711384166392625e-15 0.000000000000000000e+00 -2.760518349592715492e-15 4.497582278615948660e-15 0.000000000000000000e+00 -3.780142824593891460e-15 -4.717487653033751269e-15 0.000000000000000000e+00 -1.818463448986875223e-18 -6.818069759124788423e-16 -1.119854366332493992e-15 -1.178803456146589323e-15 1.637711384166392625e-15 0.000000000000000000e+00 0.000000000000000000e+00 0.000000000000000000e+00 0.000000000000000000e+00 1.495255354931943010e-15 -3.381952956856157289e-15 0.000000000000000000e+00 1.950516001691504268e-15 -1.443646762105023942e-15 -1.119854366332493992e-15 -1.178803456146589323e-15 1.637711384166392625e-15 0.000000000000000000e+00 0.000000000000000000e+00 0.000000000000000000e+00 0.000000000000000000e+00 3.238035479808402726e-15 -4.934420832228196860e-15 0.000000000000000000e+00 -2.324541432228891226e-15 -2.407655520458759868e-15
4.499883872315486428e+02 -1.607852737609793622e-02 3.283571691996212683e-01 1.158685906893856393e-01 -3.902330377856259025e-01 1.717694836642065015e+00 -2.739779374706360127e+00 -5.363520537781429898e-01 -2.210640910440311302e+00 1.276756905738287706e-01 3.643175259508776853e-01 -4.289973430878650240e-01 3.100404145952598278e-01 -3.395330310419071851e-01 -2.117597620884080767e-01 -1.390130809445504712e+00 -6.714973150880991781e-01 -8.504005636628446663e-01 -2.340317524795945681e-01 -5.054562585987252277e-01 9.518978842999724355e-02 2.562846607217109107e-01 1.138954580071552952e-01 -9.168714790954748395e-01 -3.539328146345981918e-01 2.334738394775259351e+00 3.697626156491043425e-01 1.032721198646205651e-01 -2.214053512817435898e+00 -3.835353748709582900e-01 9.806851204107638886e-02 7.572403150738529765e-02 -4.828870330483325118e-02 6.042732586917537885e-04 5.870668377909685903e-02 -1.716357805438460324e-02 2.345835675459549685e-01 8.797544461807258465e-01 -3.373531796275696104e-01 1.613130775681309304e-01 2.076984349382148820e-01 -5.680164150681398239e-01 1.631911260743289238e-01 -1.889325166082491403e-01 8.522583914987343912e-01 -2.283691628322721101e+00 9.734777168174771900e-01 5.536133441295194579e-01 -5.267242766086797090e+00 1.656469435711010574e+00 -6.265081608518809020e+00 4.668613451010524829e-01 5.377186884349564044e-01 -7.658264130671907921e-01 0.000000000000000000e+00 0.000000000000000000e+00 0.000000000000000000e+00 -8.540673306268905046e-15 -5.409581169489383177e-17 0.000000000000000000e+00 -5.335651412110811506e-15 -5.988967923653097656e-15 0.000000000000000000e+00 -9.825853940078008275e-16 5.881464925520687073e-16 1.301751587813173057e-15 0.000000000000000000e+00 0.000000000000000000e+00 0.000000000000000000e+00 0.000000000000000000e+00 -1.020470834679114893e-15 5.744145562112107900e-16 0.000000000000000000e+00 -2.465131208021308931e-15 -5.226780719529434976e-15 -9.825853940078008275e-16 5.881464925520687073e-16 1.301751587813173057e-15 0.000000000000000000e+00 3.778926495431586486e-15 6.903530387213792500e-15 0.000000000000000000e+00 -1.125366550256271930e-15 -3.192756850042381761e-16 0.000000000000000000e+00 -1.474132122104644821e-16 8.324709234884947472e-15 -9.825853940078008275e-16 5.881464925520687073e-16 1.301751587813173057e-15 0.000000000000000000e+00 0.000000000000000000e+00 0.000000000000000000e+00 0.000000000000000000e+00 2.419452751081040980e-15 9.637491416816473800e-15 0.000000000000000000e+00 2.894967010798630089e-15 1.171517573234401219e-14 -9.825853940078008275e-16 5.881464925520687073e-16 1.301751587813173057e-15 0.000000000000000000e+00 0.000000000000000000e+00 0.000000000000000000e+00 0.000000000000000000e+00 2.023648523267042568e-16 6.042290452090443271e-15 0.000000000000000000e+00 8.258959940427726115e-16 5.653409045999337544e-15 3.440744813761156123e-02 1.335676739884430753e-01 2.708670777424240783e-01 3.820658292051588578e-01 -1.966134165910435883e-01 -4.185392458172348951e-01 4.974124168443138094e-01 -1.950014645161840088e+00 3.814321191835601255e-01 -4.741946855273597272e+00 -2.657680173303750060e+00 -5.865028911408879386e-01 0.000000000000000000e+00 0.000000000000000000e+00 0.000000000000000000e+00 3.603083851780502710e-15 9.210730703852862093e-16 0.000000000000000000e+00 -3.441200628796813838e-15 2.963540936905987995e-15 0.000000000000000000e+00 -1.605519087736564862e-15 -1.789945637702457821e-15 1.947877551672369005e-15 0.000000000000000000e+00 0.000000000000000000e+00 0.000000000000000000e+00 0.000000000000000000e+00 -2.482049168656971727e-15 -7.267185934663280642e-15 0.000000000000000000e+00 -1.338949967565827879e-15 -3.851322235657969184e-15 -1.605519087736564862e-15 -1.789945637702457821e-15 1.947877551672369005e-15 0.000000000000000000e+00 -2.390753423360891619e-15 3.973484471000306407e-15 0.000000000000000000e+00 -3.884842089431429145e-15 -5.604015629599806813e-15 0.000000000000000000e+00 -1.270704219495846760e-17 -1.368813780143124967e-15 -1.605519087736564862e-15 -1.789945637702457821e-15 1.947877551672369005e-15 0.000000000000000000e+00 0.000000000000000000e+00 0.000000000000000000e+00 0.000000000000000000e+00 1.620512795909609544e-15 -4.228832323067253019e-15 0.000000000000000000e+00 1.909959774017845315e-15 -1.369628894203811103e-15 -1.605519087736564862e-15 -1.789945637702457821e-15 1.947877551672369005e-15 0.000000000000000000e+00 0.000000000000000000e+00 0.000000000000000000e+00 0.000000000000000000e+00 3.475164902201291266e-15 -6.069300859084813353e-15 0.000000000000000000e+00 -2.781840110176230971e-15 -2.728473458869071364e-15
